<?xml version="1.0" encoding="UTF-8" standalone="no"?>
<svg
   id="Layer_1"
   data-name="Layer 1"
   viewBox="0 0 32 32"
   version="1.1"
   xmlns="http://www.w3.org/2000/svg"
   xmlns:svg="http://www.w3.org/2000/svg">
  <defs
     id="defs1">
    <style
       id="style1">
      .cls-1 {
        stroke: #ccc;
        stroke-width: 4px;
      }

      .cls-1, .cls-2 {
        fill: #ccc;
      }

      .cls-1, .cls-3 {
        stroke-miterlimit: 10;
      }

      .cls-3 {
        fill: none;
        stroke: #00e4ff;
        stroke-width: 3px;
      }

      .cls-4 {
        fill: #00e4ff;
      }
    </style>
  </defs>
  <path
     class="cls-2"
     d="M25.88,20.94v6.67H7.18V11.31h5.27c-.24-.77-.46-1.55-.63-2.33H4.84V4.33h12.7c-.33-.75-.59-1.52-.78-2.33H3.67c-.65,0-1.17,.52-1.17,1.16v6.98c0,.64,.52,1.16,1.17,1.16h1.17V28.77c0,.64,.52,1.16,1.17,1.16H27.05c.65,0,1.17-.52,1.17-1.16v-10.91c-.68,1.08-1.55,2.23-2.34,3.08Z"
     id="path1" />
  <g
     id="g1">
    <line
       class="cls-3"
       x1="23.58"
       y1="2.2"
       x2="23.58"
       y2="11.27"
       id="line1" />
    <polygon
       class="cls-4"
       points="17.3 9.43 23.58 20.31 29.87 9.43 17.3 9.43"
       id="polygon1" />
  </g>
  <line
     class="cls-1"
     x1="13.33"
     y1="18.08"
     x2="19.33"
     y2="18.08"
     id="line2" />
</svg>
